<svg width="281" height="32" viewBox="0 0 281 32" fill="none" xmlns="http://www.w3.org/2000/svg">
<g clip-path="url(#clip0_36_2)">
<path d="M27.6717 2.66669H4.04301C2.17876 2.66669 0.66748 4.17796 0.66748 6.04221V19.5443C0.66748 21.4086 2.17876 22.9199 4.04301 22.9199H27.6717C29.536 22.9199 31.0472 21.4086 31.0472 19.5443V6.04221C31.0472 4.17796 29.536 2.66669 27.6717 2.66669Z" fill="black" stroke="black" stroke-width="0.511955" stroke-linecap="round" stroke-linejoin="round"/>
<path d="M21.09 24.2701H10.9634C9.09917 24.2701 7.58789 25.4035 7.58789 26.8017C7.58789 28.1999 9.09917 29.3334 10.9634 29.3334H21.09C22.9543 29.3334 24.4655 28.1999 24.4655 26.8017C24.4655 25.4035 22.9543 24.2701 21.09 24.2701Z" fill="black" stroke="black" stroke-width="0.511955" stroke-linecap="round" stroke-linejoin="round"/>
<path d="M51.9013 12.0291C51.8274 11.2843 51.5104 10.7057 50.9503 10.2933C50.3902 9.88092 49.63 9.67471 48.6697 9.67471C48.0173 9.67471 47.4664 9.76704 47.017 9.9517C46.5677 10.1302 46.223 10.3795 45.983 10.6996C45.7491 11.0196 45.6321 11.3828 45.6321 11.7891C45.6198 12.1276 45.6906 12.4231 45.8445 12.6754C46.0045 12.9278 46.223 13.1463 46.5 13.331C46.777 13.5095 47.0971 13.6664 47.4602 13.8018C47.8234 13.9311 48.2112 14.0419 48.6236 14.1342L50.3224 14.5405C51.1473 14.7251 51.9044 14.9714 52.5938 15.2791C53.2831 15.5869 53.8802 15.9654 54.3849 16.4148C54.8897 16.8641 55.2805 17.3935 55.5575 18.0028C55.8407 18.6122 55.9853 19.3108 55.9915 20.0987C55.9853 21.2559 55.6899 22.2592 55.1051 23.1087C54.5265 23.9519 53.6894 24.6075 52.5938 25.0753C51.5043 25.5369 50.1901 25.7678 48.6513 25.7678C47.1248 25.7678 45.7952 25.5339 44.6626 25.0661C43.5362 24.5982 42.656 23.9058 42.022 22.9886C41.3942 22.0653 41.0649 20.9235 41.0341 19.5632H44.9027C44.9458 20.1972 45.1274 20.7266 45.4474 21.1513C45.7737 21.5698 46.2076 21.8868 46.7493 22.1023C47.2971 22.3116 47.9157 22.4162 48.6051 22.4162C49.2822 22.4162 49.87 22.3177 50.3686 22.1207C50.8733 21.9238 51.2642 21.6499 51.5412 21.299C51.8182 20.9482 51.9567 20.545 51.9567 20.0895C51.9567 19.6648 51.8305 19.3078 51.5781 19.0185C51.3319 18.7292 50.9688 18.483 50.4886 18.2798C50.0147 18.0767 49.433 17.892 48.7436 17.7259L46.6847 17.2088C45.0904 16.821 43.8317 16.2147 42.9084 15.3899C41.9851 14.5651 41.5265 13.4541 41.5327 12.0568C41.5265 10.9119 41.8312 9.91169 42.4467 9.05611C43.0684 8.20052 43.9209 7.53267 45.0043 7.05256C46.0876 6.57244 47.3187 6.33239 48.6974 6.33239C50.1009 6.33239 51.3258 6.57244 52.3722 7.05256C53.4247 7.53267 54.2434 8.20052 54.8281 9.05611C55.4129 9.91169 55.7145 10.9027 55.733 12.0291H51.9013ZM65.0144 25.777C63.5617 25.777 62.3122 25.4692 61.2658 24.8537C60.2256 24.232 59.4254 23.3703 58.8652 22.2685C58.3113 21.1667 58.0343 19.8987 58.0343 18.4645C58.0343 17.0118 58.3143 15.7377 58.8745 14.642C59.4408 13.5402 60.244 12.6816 61.2843 12.0661C62.3245 11.4444 63.5617 11.1335 64.9959 11.1335C66.2331 11.1335 67.3165 11.3582 68.2459 11.8075C69.1754 12.2569 69.9109 12.8878 70.4526 13.7003C70.9943 14.5128 71.2928 15.4669 71.3482 16.5625H67.6365C67.5319 15.8546 67.2549 15.2853 66.8056 14.8544C66.3624 14.4174 65.7807 14.1989 65.0605 14.1989C64.4512 14.1989 63.9187 14.3651 63.4632 14.6974C63.0139 15.0237 62.6631 15.5007 62.4107 16.1286C62.1583 16.7564 62.0321 17.5166 62.0321 18.4091C62.0321 19.3139 62.1552 20.0833 62.4015 20.7173C62.6538 21.3513 63.0078 21.8345 63.4632 22.1669C63.9187 22.4993 64.4512 22.6655 65.0605 22.6655C65.5099 22.6655 65.9131 22.5732 66.2701 22.3885C66.6332 22.2038 66.9318 21.9361 67.1657 21.5852C67.4057 21.2282 67.5627 20.8004 67.6365 20.3018H71.3482C71.2866 21.3852 70.9912 22.3393 70.4618 23.1641C69.9386 23.9827 69.2154 24.6229 68.2921 25.0845C67.3688 25.5462 66.2762 25.777 65.0144 25.777ZM73.8665 25.5V11.3182H77.6797V13.7926H77.8274C78.0859 12.9124 78.5199 12.2476 79.1293 11.7983C79.7386 11.3428 80.4403 11.1151 81.2344 11.1151C81.4313 11.1151 81.6437 11.1274 81.8714 11.152C82.0992 11.1766 82.2992 11.2105 82.4716 11.2536V14.7436C82.2869 14.6882 82.0315 14.639 81.7053 14.5959C81.379 14.5528 81.0805 14.5312 80.8097 14.5312C80.2311 14.5312 79.714 14.6574 79.2585 14.9098C78.8092 15.156 78.4522 15.5007 78.1875 15.9439C77.929 16.3871 77.7997 16.898 77.7997 17.4766V25.5H73.8665ZM90.3081 25.777C88.8493 25.777 87.5936 25.4815 86.541 24.8906C85.4946 24.2936 84.6883 23.4503 84.122 22.3608C83.5557 21.2652 83.2725 19.9695 83.2725 18.4737C83.2725 17.0149 83.5557 15.7346 84.122 14.6328C84.6883 13.531 85.4854 12.6723 86.5133 12.0568C87.5474 11.4413 88.76 11.1335 90.1511 11.1335C91.0867 11.1335 91.9577 11.2843 92.764 11.5859C93.5765 11.8814 94.2844 12.3277 94.8876 12.9247C95.497 13.5218 95.9709 14.2727 96.3095 15.1776C96.648 16.0762 96.8173 17.1288 96.8173 18.3352V19.4155H84.8422V16.978H93.1149C93.1149 16.4117 92.9918 15.91 92.7456 15.473C92.4993 15.036 92.1577 14.6944 91.7207 14.4482C91.2898 14.1958 90.7882 14.0696 90.2157 14.0696C89.6187 14.0696 89.0893 14.2081 88.6277 14.4851C88.1722 14.7559 87.8152 15.1222 87.5566 15.5838C87.2981 16.0393 87.1658 16.5471 87.1596 17.1072V19.4247C87.1596 20.1264 87.2889 20.7327 87.5474 21.2436C87.8121 21.7545 88.1845 22.1484 88.6646 22.4254C89.1447 22.7024 89.7141 22.8409 90.3727 22.8409C90.8097 22.8409 91.2098 22.7794 91.573 22.6562C91.9361 22.5331 92.247 22.3485 92.5055 22.1023C92.764 21.8561 92.961 21.5545 93.0964 21.1974L96.7342 21.4375C96.5495 22.3116 96.171 23.0748 95.5985 23.7273C95.0323 24.3736 94.2998 24.8783 93.4011 25.2415C92.5086 25.5985 91.4776 25.777 90.3081 25.777ZM105.847 25.777C104.388 25.777 103.133 25.4815 102.08 24.8906C101.034 24.2936 100.227 23.4503 99.661 22.3608C99.0948 21.2652 98.8116 19.9695 98.8116 18.4737C98.8116 17.0149 99.0948 15.7346 99.661 14.6328C100.227 13.531 101.024 12.6723 102.052 12.0568C103.086 11.4413 104.299 11.1335 105.69 11.1335C106.626 11.1335 107.497 11.2843 108.303 11.5859C109.116 11.8814 109.823 12.3277 110.427 12.9247C111.036 13.5218 111.51 14.2727 111.849 15.1776C112.187 16.0762 112.356 17.1288 112.356 18.3352V19.4155H100.381V16.978H108.654C108.654 16.4117 108.531 15.91 108.285 15.473C108.038 15.036 107.697 14.6944 107.26 14.4482C106.829 14.1958 106.327 14.0696 105.755 14.0696C105.158 14.0696 104.628 14.2081 104.167 14.4851C103.711 14.7559 103.354 15.1222 103.096 15.5838C102.837 16.0393 102.705 16.5471 102.699 17.1072V19.4247C102.699 20.1264 102.828 20.7327 103.086 21.2436C103.351 21.7545 103.724 22.1484 104.204 22.4254C104.684 22.7024 105.253 22.8409 105.912 22.8409C106.349 22.8409 106.749 22.7794 107.112 22.6562C107.475 22.5331 107.786 22.3485 108.045 22.1023C108.303 21.8561 108.5 21.5545 108.635 21.1974L112.273 21.4375C112.089 22.3116 111.71 23.0748 111.138 23.7273C110.571 24.3736 109.839 24.8783 108.94 25.2415C108.048 25.5985 107.017 25.777 105.847 25.777ZM118.856 17.3011V25.5H114.923V11.3182H118.672V13.8203H118.838C119.152 12.9955 119.678 12.343 120.417 11.8629C121.155 11.3767 122.051 11.1335 123.104 11.1335C124.088 11.1335 124.947 11.349 125.68 11.7798C126.412 12.2107 126.981 12.8262 127.388 13.6264C127.794 14.4205 127.997 15.3684 127.997 16.4702V25.5H124.064V17.1719C124.07 16.304 123.848 15.6269 123.399 15.1406C122.95 14.6482 122.331 14.402 121.543 14.402C121.014 14.402 120.546 14.5159 120.14 14.7436C119.74 14.9714 119.426 15.3037 119.198 15.7408C118.976 16.1716 118.863 16.6918 118.856 17.3011ZM147.446 12.0291C147.372 11.2843 147.055 10.7057 146.495 10.2933C145.935 9.88092 145.175 9.67471 144.215 9.67471C143.562 9.67471 143.011 9.76704 142.562 9.9517C142.113 10.1302 141.768 10.3795 141.528 10.6996C141.294 11.0196 141.177 11.3828 141.177 11.7891C141.165 12.1276 141.235 12.4231 141.389 12.6754C141.549 12.9278 141.768 13.1463 142.045 13.331C142.322 13.5095 142.642 13.6664 143.005 13.8018C143.368 13.9311 143.756 14.0419 144.169 14.1342L145.867 14.5405C146.692 14.7251 147.449 14.9714 148.139 15.2791C148.828 15.5869 149.425 15.9654 149.93 16.4148C150.435 16.8641 150.825 17.3935 151.102 18.0028C151.386 18.6122 151.53 19.3108 151.536 20.0987C151.53 21.2559 151.235 22.2592 150.65 23.1087C150.071 23.9519 149.234 24.6075 148.139 25.0753C147.049 25.5369 145.735 25.7678 144.196 25.7678C142.67 25.7678 141.34 25.5339 140.208 25.0661C139.081 24.5982 138.201 23.9058 137.567 22.9886C136.939 22.0653 136.61 20.9235 136.579 19.5632H140.448C140.491 20.1972 140.672 20.7266 140.992 21.1513C141.319 21.5698 141.753 21.8868 142.294 22.1023C142.842 22.3116 143.461 22.4162 144.15 22.4162C144.827 22.4162 145.415 22.3177 145.914 22.1207C146.418 21.9238 146.809 21.6499 147.086 21.299C147.363 20.9482 147.502 20.545 147.502 20.0895C147.502 19.6648 147.375 19.3078 147.123 19.0185C146.877 18.7292 146.514 18.483 146.034 18.2798C145.56 18.0767 144.978 17.892 144.289 17.7259L142.23 17.2088C140.635 16.821 139.377 16.2147 138.453 15.3899C137.53 14.5651 137.071 13.4541 137.078 12.0568C137.071 10.9119 137.376 9.91169 137.992 9.05611C138.613 8.20052 139.466 7.53267 140.549 7.05256C141.633 6.57244 142.864 6.33239 144.242 6.33239C145.646 6.33239 146.871 6.57244 147.917 7.05256C148.97 7.53267 149.788 8.20052 150.373 9.05611C150.958 9.91169 151.259 10.9027 151.278 12.0291H147.446ZM160.559 25.777C159.107 25.777 157.857 25.4692 156.811 24.8537C155.77 24.232 154.97 23.3703 154.41 22.2685C153.856 21.1667 153.579 19.8987 153.579 18.4645C153.579 17.0118 153.859 15.7377 154.419 14.642C154.986 13.5402 155.789 12.6816 156.829 12.0661C157.869 11.4444 159.107 11.1335 160.541 11.1335C161.778 11.1335 162.861 11.3582 163.791 11.8075C164.72 12.2569 165.456 12.8878 165.998 13.7003C166.539 14.5128 166.838 15.4669 166.893 16.5625H163.181C163.077 15.8546 162.8 15.2853 162.35 14.8544C161.907 14.4174 161.326 14.1989 160.605 14.1989C159.996 14.1989 159.464 14.3651 159.008 14.6974C158.559 15.0237 158.208 15.5007 157.956 16.1286C157.703 16.7564 157.577 17.5166 157.577 18.4091C157.577 19.3139 157.7 20.0833 157.946 20.7173C158.199 21.3513 158.553 21.8345 159.008 22.1669C159.464 22.4993 159.996 22.6655 160.605 22.6655C161.055 22.6655 161.458 22.5732 161.815 22.3885C162.178 22.2038 162.477 21.9361 162.711 21.5852C162.951 21.2282 163.108 20.8004 163.181 20.3018H166.893C166.832 21.3852 166.536 22.3393 166.007 23.1641C165.484 23.9827 164.76 24.6229 163.837 25.0845C162.914 25.5462 161.821 25.777 160.559 25.777ZM169.411 25.5V11.3182H173.225V13.7926H173.372C173.631 12.9124 174.065 12.2476 174.674 11.7983C175.284 11.3428 175.985 11.1151 176.779 11.1151C176.976 11.1151 177.189 11.1274 177.416 11.152C177.644 11.1766 177.844 11.2105 178.017 11.2536V14.7436C177.832 14.6882 177.576 14.639 177.25 14.5959C176.924 14.5528 176.625 14.5312 176.355 14.5312C175.776 14.5312 175.259 14.6574 174.803 14.9098C174.354 15.156 173.997 15.5007 173.732 15.9439C173.474 16.3871 173.345 16.898 173.345 17.4766V25.5H169.411ZM180.05 25.5V11.3182H183.983V25.5H180.05ZM182.026 9.49006C181.441 9.49006 180.94 9.29616 180.521 8.90838C180.109 8.51444 179.902 8.04356 179.902 7.49574C179.902 6.95407 180.109 6.48935 180.521 6.10156C180.94 5.70762 181.441 5.51065 182.026 5.51065C182.611 5.51065 183.109 5.70762 183.522 6.10156C183.94 6.48935 184.15 6.95407 184.15 7.49574C184.15 8.04356 183.94 8.51444 183.522 8.90838C183.109 9.29616 182.611 9.49006 182.026 9.49006ZM187.134 30.8182V11.3182H191.012V13.7003H191.187C191.36 13.3187 191.609 12.9309 191.935 12.5369C192.268 12.1368 192.698 11.8045 193.228 11.5398C193.763 11.2689 194.428 11.1335 195.222 11.1335C196.256 11.1335 197.21 11.4044 198.084 11.946C198.958 12.4815 199.657 13.291 200.18 14.3743C200.703 15.4515 200.965 16.8026 200.965 18.4276C200.965 20.0095 200.71 21.3452 200.199 22.4347C199.694 23.518 199.005 24.3397 198.131 24.8999C197.263 25.4538 196.29 25.7308 195.213 25.7308C194.45 25.7308 193.8 25.6046 193.265 25.3523C192.735 25.0999 192.301 24.7829 191.963 24.4013C191.624 24.0135 191.366 23.6226 191.187 23.2287H191.067V30.8182H187.134ZM190.984 18.4091C190.984 19.2524 191.101 19.9879 191.335 20.6158C191.569 21.2436 191.907 21.733 192.351 22.0838C192.794 22.4285 193.332 22.6009 193.966 22.6009C194.607 22.6009 195.148 22.4254 195.591 22.0746C196.035 21.7176 196.37 21.2251 196.598 20.5973C196.832 19.9633 196.949 19.2339 196.949 18.4091C196.949 17.5904 196.835 16.8703 196.607 16.2486C196.379 15.6269 196.044 15.1406 195.601 14.7898C195.157 14.4389 194.613 14.2635 193.966 14.2635C193.326 14.2635 192.785 14.4328 192.341 14.7713C191.904 15.1098 191.569 15.59 191.335 16.2116C191.101 16.8333 190.984 17.5658 190.984 18.4091ZM211.131 11.3182V14.2727H202.59V11.3182H211.131ZM204.529 7.92045H208.462V21.142C208.462 21.5052 208.518 21.7884 208.628 21.9915C208.739 22.1884 208.893 22.3269 209.09 22.407C209.293 22.487 209.527 22.527 209.792 22.527C209.976 22.527 210.161 22.5116 210.346 22.4808C210.53 22.4439 210.672 22.4162 210.77 22.3977L211.389 25.3246C211.192 25.3861 210.915 25.4569 210.558 25.5369C210.201 25.6231 209.767 25.6754 209.256 25.6939C208.308 25.7308 207.477 25.6046 206.763 25.3153C206.055 25.026 205.505 24.5767 205.111 23.9673C204.717 23.358 204.523 22.5885 204.529 21.6591V7.92045Z" fill="black"/>
<path d="M226.266 25.5H220.43V6.59091H226.524C228.358 6.59091 229.928 6.96946 231.233 7.72656C232.538 8.47751 233.538 9.55776 234.234 10.9673C234.929 12.3707 235.277 14.0511 235.277 16.0085C235.277 17.9782 234.926 19.674 234.224 21.0959C233.523 22.5116 232.501 23.6011 231.159 24.3643C229.817 25.1214 228.186 25.5 226.266 25.5ZM222.72 23.4688H226.118C227.681 23.4688 228.977 23.1671 230.005 22.5639C231.033 21.9607 231.799 21.102 232.304 19.9879C232.809 18.8738 233.061 17.5473 233.061 16.0085C233.061 14.482 232.812 13.1679 232.313 12.0661C231.815 10.9581 231.07 10.1087 230.079 9.51775C229.088 8.92069 227.854 8.62216 226.376 8.62216H222.72V23.4688ZM244.584 25.7955C243.304 25.7955 242.18 25.4908 241.214 24.8814C240.254 24.272 239.503 23.4195 238.961 22.3239C238.425 21.2282 238.158 19.9479 238.158 18.483C238.158 17.0057 238.425 15.7161 238.961 14.6143C239.503 13.5125 240.254 12.657 241.214 12.0476C242.18 11.4382 243.304 11.1335 244.584 11.1335C245.864 11.1335 246.984 11.4382 247.945 12.0476C248.911 12.657 249.662 13.5125 250.197 14.6143C250.739 15.7161 251.01 17.0057 251.01 18.483C251.01 19.9479 250.739 21.2282 250.197 22.3239C249.662 23.4195 248.911 24.272 247.945 24.8814C246.984 25.4908 245.864 25.7955 244.584 25.7955ZM244.584 23.8381C245.556 23.8381 246.357 23.5888 246.984 23.0902C247.612 22.5916 248.077 21.9361 248.379 21.1236C248.68 20.3111 248.831 19.4309 248.831 18.483C248.831 17.535 248.68 16.6518 248.379 15.8331C248.077 15.0144 247.612 14.3527 246.984 13.848C246.357 13.3433 245.556 13.0909 244.584 13.0909C243.611 13.0909 242.811 13.3433 242.183 13.848C241.555 14.3527 241.091 15.0144 240.789 15.8331C240.487 16.6518 240.337 17.535 240.337 18.483C240.337 19.4309 240.487 20.3111 240.789 21.1236C241.091 21.9361 241.555 22.5916 242.183 23.0902C242.811 23.5888 243.611 23.8381 244.584 23.8381ZM260.097 25.7955C258.768 25.7955 257.623 25.4815 256.663 24.8537C255.703 24.2259 254.964 23.361 254.447 22.2592C253.93 21.1574 253.671 19.8987 253.671 18.483C253.671 17.0426 253.936 15.7715 254.465 14.6697C255.001 13.5618 255.746 12.697 256.7 12.0753C257.66 11.4474 258.78 11.1335 260.061 11.1335C261.058 11.1335 261.956 11.3182 262.757 11.6875C263.557 12.0568 264.212 12.5739 264.723 13.2386C265.234 13.9034 265.551 14.679 265.674 15.5653H263.495C263.329 14.919 262.96 14.3466 262.387 13.848C261.821 13.3433 261.058 13.0909 260.097 13.0909C259.248 13.0909 258.503 13.3125 257.863 13.7557C257.229 14.1927 256.734 14.8113 256.377 15.6115C256.026 16.4055 255.85 17.3381 255.85 18.4091C255.85 19.5047 256.023 20.4588 256.367 21.2713C256.718 22.0838 257.211 22.7147 257.845 23.1641C258.485 23.6134 259.236 23.8381 260.097 23.8381C260.664 23.8381 261.178 23.7396 261.639 23.5426C262.101 23.3456 262.492 23.0625 262.812 22.6932C263.132 22.3239 263.36 21.8807 263.495 21.3636H265.674C265.551 22.2008 265.246 22.9548 264.76 23.6257C264.28 24.2905 263.643 24.8198 262.849 25.2138C262.061 25.6016 261.144 25.7955 260.097 25.7955ZM278.905 14.4943L276.948 15.0483C276.825 14.7221 276.643 14.4051 276.403 14.0973C276.169 13.7834 275.849 13.5249 275.443 13.3217C275.036 13.1186 274.516 13.017 273.882 13.017C273.014 13.017 272.291 13.2171 271.713 13.6172C271.14 14.0111 270.854 14.5128 270.854 15.1222C270.854 15.6638 271.051 16.0916 271.445 16.4055C271.839 16.7195 272.454 16.9811 273.291 17.1903L275.396 17.7074C276.664 18.0152 277.609 18.486 278.231 19.12C278.853 19.7479 279.164 20.5573 279.164 21.5483C279.164 22.3608 278.93 23.0871 278.462 23.7273C278 24.3674 277.354 24.8722 276.523 25.2415C275.692 25.6108 274.726 25.7955 273.624 25.7955C272.177 25.7955 270.98 25.4815 270.032 24.8537C269.084 24.2259 268.484 23.3087 268.232 22.1023L270.3 21.5852C270.497 22.3485 270.869 22.9209 271.417 23.3026C271.971 23.6842 272.694 23.875 273.587 23.875C274.602 23.875 275.409 23.6596 276.006 23.2287C276.609 22.7917 276.911 22.2685 276.911 21.6591C276.911 21.1667 276.738 20.7543 276.394 20.4219C276.049 20.0833 275.52 19.831 274.806 19.6648L272.442 19.1108C271.143 18.803 270.189 18.326 269.58 17.6797C268.977 17.0272 268.675 16.2116 268.675 15.233C268.675 14.4328 268.9 13.7249 269.349 13.1094C269.804 12.4938 270.423 12.0107 271.205 11.6598C271.993 11.3089 272.885 11.1335 273.882 11.1335C275.286 11.1335 276.387 11.4413 277.188 12.0568C277.994 12.6723 278.566 13.4848 278.905 14.4943Z" fill="#434242"/>
</g>
<defs>
<clipPath id="clip0_36_2">
<rect width="281" height="32" fill="white"/>
</clipPath>
</defs>
</svg>
